<mxfile host="app.diagrams.net" agent="Mozilla/5.0 (Windows NT 10.0; Win64; x64; rv:136.0) Gecko/20100101 Firefox/136.0" version="26.1.1">
  <diagram name="Page-1" id="42789a77-a242-8287-6e28-9cd8cfd52e62">
    <mxGraphModel dx="1050" dy="557" grid="1" gridSize="10" guides="1" tooltips="1" connect="1" arrows="1" fold="1" page="1" pageScale="1" pageWidth="1100" pageHeight="850" background="none" math="0" shadow="0">
      <root>
        <mxCell id="0" />
        <mxCell id="1" parent="0" />
        <mxCell id="1ea317790d2ca983-12" style="edgeStyle=none;rounded=1;html=1;labelBackgroundColor=none;startArrow=none;startFill=0;startSize=5;endArrow=classicThin;endFill=1;endSize=5;jettySize=auto;orthogonalLoop=1;strokeColor=#182E3E;strokeWidth=1;fontFamily=Verdana;fontSize=12;fontColor=default;" parent="1" source="VtZA3lXOfRQ_d-chlMFx-1" edge="1">
          <mxGeometry relative="1" as="geometry">
            <mxPoint x="498.55534097356986" y="190.11261318501056" as="targetPoint" />
          </mxGeometry>
        </mxCell>
        <mxCell id="1ea317790d2ca983-13" value="&lt;b&gt;home&lt;/b&gt;" style="edgeStyle=none;rounded=1;html=1;labelBackgroundColor=none;startArrow=none;startFill=0;startSize=5;endArrow=classicThin;endFill=1;endSize=5;jettySize=auto;orthogonalLoop=1;strokeColor=#182E3E;strokeWidth=1;fontFamily=Verdana;fontSize=12;fontColor=default;" parent="1" source="1ea317790d2ca983-1" target="1ea317790d2ca983-9" edge="1">
          <mxGeometry x="0.0029" relative="1" as="geometry">
            <mxPoint as="offset" />
          </mxGeometry>
        </mxCell>
        <mxCell id="1ea317790d2ca983-14" value="" style="edgeStyle=none;rounded=1;html=1;labelBackgroundColor=none;startArrow=none;startFill=0;startSize=5;endArrow=classicThin;endFill=1;endSize=5;jettySize=auto;orthogonalLoop=1;strokeColor=#182E3E;strokeWidth=1;fontFamily=Verdana;fontSize=12;fontColor=default;" parent="1" source="1ea317790d2ca983-1" target="1ea317790d2ca983-3" edge="1">
          <mxGeometry x="-0.0027" relative="1" as="geometry">
            <mxPoint as="offset" />
          </mxGeometry>
        </mxCell>
        <mxCell id="1ea317790d2ca983-1" value="&lt;div&gt;Rat-Man&lt;/div&gt;&lt;div&gt;Edizioni-Speciali&lt;/div&gt;&lt;div&gt;(Parodie)&lt;/div&gt;" style="ellipse;whiteSpace=wrap;html=1;rounded=0;shadow=1;comic=0;labelBackgroundColor=none;strokeWidth=1;fontFamily=Verdana;fontSize=12;align=center;fillColor=#F5AB50;strokeColor=#909090;fontColor=#1A1A1A;" parent="1" vertex="1">
          <mxGeometry x="410" y="80" width="200" height="60" as="geometry" />
        </mxCell>
        <mxCell id="1ea317790d2ca983-21" value="" style="edgeStyle=none;rounded=1;html=1;labelBackgroundColor=none;startArrow=none;startFill=0;startSize=5;endArrow=classicThin;endFill=1;endSize=5;jettySize=auto;orthogonalLoop=1;strokeColor=#182E3E;strokeWidth=1;fontFamily=Verdana;fontSize=12;exitX=0.461;exitY=1;exitDx=0;exitDy=0;exitPerimeter=0;fontColor=default;" parent="1" source="1ea317790d2ca983-1" edge="1">
          <mxGeometry relative="1" as="geometry">
            <mxPoint x="478.27132489318797" y="223.3746029553613" as="sourcePoint" />
            <mxPoint x="430" y="270" as="targetPoint" />
            <Array as="points">
              <mxPoint x="500" y="186" />
            </Array>
          </mxGeometry>
        </mxCell>
        <mxCell id="1ea317790d2ca983-22" value="" style="edgeStyle=none;rounded=1;html=1;labelBackgroundColor=none;startArrow=none;startFill=0;startSize=5;endArrow=classicThin;endFill=1;endSize=5;jettySize=auto;orthogonalLoop=1;strokeColor=#182E3E;strokeWidth=1;fontFamily=Verdana;fontSize=12;fontColor=default;" parent="1" edge="1">
          <mxGeometry relative="1" as="geometry">
            <mxPoint x="511.0486991244977" y="186.00487903054287" as="sourcePoint" />
            <mxPoint x="570" y="260" as="targetPoint" />
          </mxGeometry>
        </mxCell>
        <mxCell id="1ea317790d2ca983-15" value="illustratore" style="edgeStyle=none;rounded=1;html=1;labelBackgroundColor=none;startArrow=none;startFill=0;startSize=5;endArrow=classicThin;endFill=1;endSize=5;jettySize=auto;orthogonalLoop=1;strokeColor=#182E3E;strokeWidth=1;fontFamily=Verdana;fontSize=12;fontColor=default;" parent="1" source="1ea317790d2ca983-3" target="1ea317790d2ca983-4" edge="1">
          <mxGeometry relative="1" as="geometry" />
        </mxCell>
        <mxCell id="1ea317790d2ca983-3" value="Leo ortolani" style="ellipse;whiteSpace=wrap;html=1;rounded=0;shadow=1;comic=0;labelBackgroundColor=none;strokeWidth=1;fontFamily=Verdana;fontSize=12;align=center;fillColor=#F5AB50;strokeColor=#909090;fontColor=#1A1A1A;" parent="1" vertex="1">
          <mxGeometry x="700" y="190" width="75" height="50" as="geometry" />
        </mxCell>
        <mxCell id="1ea317790d2ca983-16" value="&lt;div&gt;editore&lt;/div&gt;" style="edgeStyle=none;rounded=1;html=1;labelBackgroundColor=none;startArrow=none;startFill=0;startSize=5;endArrow=classicThin;endFill=1;endSize=5;jettySize=auto;orthogonalLoop=1;strokeColor=#182E3E;strokeWidth=1;fontFamily=Verdana;fontSize=12;fontColor=default;" parent="1" source="1ea317790d2ca983-4" target="1ea317790d2ca983-5" edge="1">
          <mxGeometry x="0.2" y="23" relative="1" as="geometry">
            <mxPoint as="offset" />
          </mxGeometry>
        </mxCell>
        <mxCell id="1ea317790d2ca983-4" value="Larry ortolani" style="ellipse;whiteSpace=wrap;html=1;rounded=0;shadow=1;comic=0;labelBackgroundColor=none;strokeWidth=1;fontFamily=Verdana;fontSize=12;align=center;fillColor=#F5AB50;strokeColor=#909090;fontColor=#1A1A1A;" parent="1" vertex="1">
          <mxGeometry x="700" y="320" width="75" height="50" as="geometry" />
        </mxCell>
        <mxCell id="1ea317790d2ca983-17" value="" style="edgeStyle=none;rounded=1;html=1;labelBackgroundColor=none;startArrow=none;startFill=0;startSize=5;endArrow=classicThin;endFill=1;endSize=5;jettySize=auto;orthogonalLoop=1;strokeColor=#182E3E;strokeWidth=1;fontFamily=Verdana;fontSize=12;fontColor=default;" parent="1" source="1ea317790d2ca983-5" target="1ea317790d2ca983-8" edge="1">
          <mxGeometry relative="1" as="geometry" />
        </mxCell>
        <mxCell id="1ea317790d2ca983-5" value="Panini comics" style="ellipse;whiteSpace=wrap;html=1;rounded=0;shadow=1;comic=0;labelBackgroundColor=none;strokeWidth=1;fontFamily=Verdana;fontSize=12;align=center;fillColor=#F5AB50;strokeColor=#909090;fontColor=#1A1A1A;" parent="1" vertex="1">
          <mxGeometry x="700" y="470" width="75" height="50" as="geometry" />
        </mxCell>
        <mxCell id="1ea317790d2ca983-23" value="" style="edgeStyle=none;rounded=1;html=1;labelBackgroundColor=none;startArrow=none;startFill=0;startSize=5;endArrow=classicThin;endFill=1;endSize=5;jettySize=auto;orthogonalLoop=1;strokeColor=#182E3E;strokeWidth=1;fontFamily=Verdana;fontSize=12;fontColor=default;" parent="1" source="1ea317790d2ca983-6" target="1ea317790d2ca983-8" edge="1">
          <mxGeometry x="0.4802" y="-17" relative="1" as="geometry">
            <mxPoint as="offset" />
          </mxGeometry>
        </mxCell>
        <mxCell id="1ea317790d2ca983-6" value="Saghe" style="ellipse;whiteSpace=wrap;html=1;rounded=0;shadow=1;comic=0;labelBackgroundColor=none;strokeWidth=1;fontFamily=Verdana;fontSize=12;align=center;fillColor=#F5AB50;strokeColor=#909090;fontColor=#1A1A1A;" parent="1" vertex="1">
          <mxGeometry x="532.5" y="250" width="75" height="50" as="geometry" />
        </mxCell>
        <mxCell id="1ea317790d2ca983-24" value="" style="edgeStyle=none;rounded=1;html=1;labelBackgroundColor=none;startArrow=none;startFill=0;startSize=5;endArrow=classicThin;endFill=1;endSize=5;jettySize=auto;orthogonalLoop=1;strokeColor=#182E3E;strokeWidth=1;fontFamily=Verdana;fontSize=12;fontColor=default;" parent="1" source="1ea317790d2ca983-7" target="1ea317790d2ca983-8" edge="1">
          <mxGeometry x="-0.0053" relative="1" as="geometry">
            <mxPoint as="offset" />
          </mxGeometry>
        </mxCell>
        <mxCell id="1ea317790d2ca983-7" value="Film" style="ellipse;whiteSpace=wrap;html=1;rounded=0;shadow=1;comic=0;labelBackgroundColor=none;strokeWidth=1;fontFamily=Verdana;fontSize=12;align=center;fillColor=#F5AB50;strokeColor=#909090;fontColor=#1A1A1A;" parent="1" vertex="1">
          <mxGeometry x="382.5" y="250" width="75" height="50" as="geometry" />
        </mxCell>
        <mxCell id="1ea317790d2ca983-8" value="&lt;div&gt;Altri &lt;br&gt;&lt;/div&gt;&lt;div&gt;fumetti&lt;/div&gt;" style="ellipse;whiteSpace=wrap;html=1;rounded=0;shadow=1;comic=0;labelBackgroundColor=none;strokeWidth=1;fontFamily=Verdana;fontSize=12;align=center;fillColor=#F5AB50;strokeColor=#909090;fontColor=#1A1A1A;" parent="1" vertex="1">
          <mxGeometry x="457.5" y="340" width="75" height="50" as="geometry" />
        </mxCell>
        <mxCell id="1ea317790d2ca983-19" value="" style="edgeStyle=none;rounded=1;html=1;labelBackgroundColor=none;startArrow=none;startFill=0;startSize=5;endArrow=classicThin;endFill=1;endSize=5;jettySize=auto;orthogonalLoop=1;strokeColor=#182E3E;strokeWidth=1;fontFamily=Verdana;fontSize=12;fontColor=default;" parent="1" source="1ea317790d2ca983-9" target="1ea317790d2ca983-10" edge="1">
          <mxGeometry relative="1" as="geometry" />
        </mxCell>
        <mxCell id="1ea317790d2ca983-9" value="progettp" style="ellipse;whiteSpace=wrap;html=1;rounded=0;shadow=1;comic=0;labelBackgroundColor=none;strokeWidth=1;fontFamily=Verdana;fontSize=12;align=center;fillColor=#F5AB50;strokeColor=#909090;fontColor=#1A1A1A;" parent="1" vertex="1">
          <mxGeometry x="210" y="190" width="75" height="50" as="geometry" />
        </mxCell>
        <mxCell id="1ea317790d2ca983-10" value="presentazione" style="ellipse;whiteSpace=wrap;html=1;rounded=0;shadow=1;comic=0;labelBackgroundColor=none;strokeWidth=1;fontFamily=Verdana;fontSize=12;align=center;fillColor=#F5AB50;strokeColor=#909090;fontColor=#1A1A1A;" parent="1" vertex="1">
          <mxGeometry x="210" y="320" width="75" height="50" as="geometry" />
        </mxCell>
        <mxCell id="1ea317790d2ca983-18" value="" style="edgeStyle=none;rounded=1;html=1;labelBackgroundColor=none;startArrow=none;startFill=0;startSize=5;endArrow=classicThin;endFill=1;endSize=5;jettySize=auto;orthogonalLoop=1;strokeColor=#182E3E;strokeWidth=1;fontFamily=Verdana;fontSize=12;fontColor=default;exitX=1;exitY=1;exitDx=0;exitDy=0;" parent="1" source="1ea317790d2ca983-10" target="1ea317790d2ca983-8" edge="1">
          <mxGeometry relative="1" as="geometry">
            <mxPoint x="277.00571438990823" y="479.5704062364698" as="sourcePoint" />
          </mxGeometry>
        </mxCell>
        <mxCell id="VtZA3lXOfRQ_d-chlMFx-2" value="" style="edgeStyle=none;rounded=1;html=1;labelBackgroundColor=none;startArrow=none;startFill=0;startSize=5;endArrow=classicThin;endFill=1;endSize=5;jettySize=auto;orthogonalLoop=1;strokeColor=#182E3E;strokeWidth=1;fontFamily=Verdana;fontSize=12;fontColor=default;" parent="1" source="1ea317790d2ca983-1" target="VtZA3lXOfRQ_d-chlMFx-1" edge="1">
          <mxGeometry relative="1" as="geometry">
            <mxPoint x="506" y="140" as="sourcePoint" />
            <mxPoint x="498.55534097356986" y="190.11261318501056" as="targetPoint" />
          </mxGeometry>
        </mxCell>
        <mxCell id="VtZA3lXOfRQ_d-chlMFx-1" value="&lt;h5&gt;&lt;font style=&quot;font-size: 12px;&quot;&gt;Catalogo Rat-Parodie&lt;/font&gt;&lt;/h5&gt;" style="text;whiteSpace=wrap;html=1;fontFamily=Helvetica;labelBackgroundColor=none;fontColor=#1A1A1A;" parent="1" vertex="1">
          <mxGeometry x="457.5" y="146" width="130" height="40" as="geometry" />
        </mxCell>
        <mxCell id="VtZA3lXOfRQ_d-chlMFx-3" value="&lt;b&gt;Creazioni e collab&lt;/b&gt;" style="text;whiteSpace=wrap;html=1;fontFamily=Helvetica;labelBackgroundColor=none;fontColor=#1A1A1A;" parent="1" vertex="1">
          <mxGeometry x="630" y="160" width="130" height="40" as="geometry" />
        </mxCell>
      </root>
    </mxGraphModel>
  </diagram>
</mxfile>
